<svg width="706" height="627" viewBox="0 0 706 627" fill="none" xmlns="http://www.w3.org/2000/svg">
<path fill-rule="evenodd" clip-rule="evenodd" d="M587.043 21.2297C558.739 7.07657 526.728 0 491.01 0C464.054 0 440.13 4.95363 419.239 14.8609C398.347 24.7681 381.162 38.5674 367.684 56.2589C359.282 67.182 352.543 79.2274 347.467 92.3952V70.0582C347.467 48.1208 342.412 31.137 332.304 19.1068C321.521 7.78427 306.695 2.12294 287.825 2.12294C268.956 2.12294 254.466 7.78427 244.358 19.1068C234.249 31.137 229.195 48.1208 229.195 70.0582V216.116C221.033 206.98 211.123 199.667 199.463 194.178C185.674 187.687 169.884 184.442 152.093 184.442C128.52 184.442 107.392 189.078 88.7114 198.351C70.4753 208.087 56.0198 221.069 45.345 237.296C35.115 253.524 30 271.838 30 292.238C30 317.274 36.227 336.979 48.6809 351.352C61.1349 366.188 81.3725 376.852 109.394 383.343C137.415 389.834 174.999 393.079 222.147 393.079H245.498V407.684C245.498 430.866 240.605 447.557 230.82 457.757L309.547 476.534C316.695 462.279 321.346 445.08 323.499 424.938C349.69 444.308 372.624 461.401 378.508 473.221C378.508 473.221 423.441 452.194 449.997 440.518C442.163 442.211 439.686 442.747 439.68 442.718C439.668 442.663 448.812 440.518 446.532 440.518C411.489 440.518 386.554 432.734 371.728 417.165C356.901 401.597 349.488 376.121 349.488 340.738V318.447H384.869C456.304 318.447 513.25 313.493 555.706 303.586C598.163 293.679 628.826 277.402 647.696 254.757C666.565 232.82 676 202.744 676 164.531C676 133.394 668.25 105.441 652.75 80.6731C636.576 55.905 614.674 36.0906 587.043 21.2297Z" fill="#35C23B"/>
<path d="M2.50001 626.27C2.50001 626.27 -5.34863 603.414 13.3772 571.417C32.9947 538.658 60.1915 510.85 94.9676 487.994C130.636 465.139 172.546 447.617 220.697 435.427C269.742 422.476 324.136 416 383.879 416C430.248 416 477.062 420.571 524.323 429.713C572.475 438.094 613.939 451.045 648.714 468.567C669.223 477.71 683.937 490.28 692.854 506.279C701.77 522.278 703.554 534.5 703.554 556.56C701.77 573.321 703.554 622.5 703.554 622.5L2.50001 626.27Z" fill="#D4959C"/>
<path fill-rule="evenodd" clip-rule="evenodd" d="M675.805 484.104C682.259 492.941 688.712 502.072 695.166 511.203C696.992 513.786 698.817 516.37 700.642 518.946C705.245 531.105 705.5 544.731 705.5 558V623.5L1 626.173C3.34756 590.867 1.00008 592.5 8.03173 584.743C33.0102 595.396 57.9886 582.545 82.967 569.693C86.1345 568.064 89.3021 566.434 92.4691 564.852C127.313 547.453 162.155 535.852 196.998 530.053C231.84 524.253 266.684 524.253 301.526 535.852C309.268 538.43 317.012 541.581 324.754 544.731C351.854 555.759 378.955 566.786 406.055 553.252C428.227 542.18 450.4 514.666 472.572 487.153C485.243 471.431 497.912 455.709 510.582 443.055C515.392 438.251 520.202 433.889 525.016 430C525.433 430.08 525.85 430.16 526.267 430.24C574.434 438.594 615.911 451.504 650.697 468.971C660.35 473.259 668.719 478.303 675.805 484.104Z" fill="#504D49"/>
</svg>
