<svg width="1175" height="300" viewBox="0 0 1175 300" fill="none" xmlns="http://www.w3.org/2000/svg">
<path d="M791.709 51.5C791.709 61.7173 783.427 70 773.209 70C762.992 70 754.709 61.7173 754.709 51.5C754.709 41.2827 762.992 33 773.209 33C783.427 33 791.709 41.2827 791.709 51.5Z" fill="#DB447F"/>
<path d="M631.6 251.4C625.6 251.4 621 249.8 617.8 246.6C614.6 243.2 613 238.4 613 232.2V54.0001C613 47.8001 614.6 43.1001 617.8 39.9001C621 36.7001 625.6 35.1001 631.6 35.1001C637.6 35.1001 642.2 36.7001 645.4 39.9001C648.8 43.1001 650.5 47.8001 650.5 54.0001V131.7H646.3C650.7 121.1 657.5 113.1 666.7 107.7C676.1 102.1 686.7 99.3001 698.5 99.3001C710.3 99.3001 720 101.5 727.6 105.9C735.2 110.3 740.9 117 744.7 126C748.5 134.8 750.4 146 750.4 159.6V232.2C750.4 238.4 748.8 243.2 745.6 246.6C742.4 249.8 737.8 251.4 731.8 251.4C725.8 251.4 721.1 249.8 717.7 246.6C714.5 243.2 712.9 238.4 712.9 232.2V161.4C712.9 150 710.7 141.7 706.3 136.5C702.1 131.3 695.5 128.7 686.5 128.7C675.5 128.7 666.7 132.2 660.1 139.2C653.7 146 650.5 155.1 650.5 166.5V232.2C650.5 245 644.2 251.4 631.6 251.4Z" fill="#FFFEFD"/>
<path d="M400.299 251.1C394.299 251.1 389.699 249.3 386.499 245.7C383.299 242.1 381.699 237.1 381.699 230.7V120.6C381.699 114 383.299 109 386.499 105.6C389.699 102 394.299 100.2 400.299 100.2C406.299 100.2 410.899 102 414.099 105.6C417.499 109 419.199 114 419.199 120.6V230.7C419.199 237.1 417.599 242.1 414.399 245.7C411.199 249.3 406.499 251.1 400.299 251.1ZM400.299 72.3C393.299 72.3 387.799 70.6 383.799 67.2C379.999 63.6 378.099 58.7 378.099 52.5C378.099 46.1 379.999 41.2 383.799 37.8C387.799 34.4 393.299 32.7 400.299 32.7C407.499 32.7 412.999 34.4 416.799 37.8C420.599 41.2 422.499 46.1 422.499 52.5C422.499 58.7 420.599 63.6 416.799 67.2C412.999 70.6 407.499 72.3 400.299 72.3ZM549.364 252C536.364 252 525.464 249.8 516.664 245.4C508.064 241 501.664 234.6 497.464 226.2C493.264 217.6 491.164 207 491.164 194.4V130.5H475.564C470.764 130.5 467.064 129.3 464.464 126.9C461.864 124.3 460.564 120.8 460.564 116.4C460.564 111.8 461.864 108.3 464.464 105.9C467.064 103.5 470.764 102.3 475.564 102.3H491.164V75C491.164 68.8 492.764 64.1 495.964 60.9C499.364 57.7 504.064 56.1 510.064 56.1C516.064 56.1 520.664 57.7 523.864 60.9C527.064 64.1 528.664 68.8 528.664 75V102.3H560.464C565.264 102.3 568.964 103.5 571.564 105.9C574.164 108.3 575.464 111.8 575.464 116.4C575.464 120.8 574.164 124.3 571.564 126.9C568.964 129.3 565.264 130.5 560.464 130.5H528.664V192.3C528.664 201.9 530.764 209.1 534.964 213.9C539.164 218.7 545.964 221.1 555.364 221.1C558.764 221.1 561.764 220.8 564.364 220.2C566.964 219.6 569.264 219.2 571.264 219C573.664 218.8 575.664 219.6 577.264 221.4C578.864 223 579.664 226.4 579.664 231.6C579.664 235.6 578.964 239.2 577.564 242.4C576.364 245.4 574.064 247.5 570.664 248.7C568.064 249.5 564.664 250.2 560.464 250.8C556.264 251.6 552.564 252 549.364 252Z" fill="#FFFEFD"/>
<path fill-rule="evenodd" clip-rule="evenodd" d="M937.47 246.6C940.87 249.8 945.67 251.4 951.87 251.4C958.07 251.4 962.77 249.8 965.97 246.6C969.17 243.2 970.77 238.4 970.77 232.2V170.1C970.77 158.7 973.87 149.9 980.07 143.7C986.27 137.3 995.47 133.5 1007.67 132.3L1014.27 131.7C1019.67 131.1 1023.67 129.3 1026.27 126.3C1029.07 123.1 1030.27 119 1029.87 114C1029.47 108.8 1027.97 105 1025.37 102.6C1022.97 100 1019.67 98.9 1015.47 99.3C1001.87 100.5 990.97 104.2 982.77 110.4C976.875 114.858 972.375 120.815 969.27 128.271V118.8C969.27 112.6 967.67 107.9 964.47 104.7C961.27 101.5 956.77 99.9 950.97 99.9C945.17 99.9 940.67 101.5 937.47 104.7C934.27 107.9 932.67 112.6 932.67 118.8V232.2C932.67 238.4 934.27 243.2 937.47 246.6ZM1068.49 246C1076.89 250 1086.39 252 1096.99 252C1104.99 252 1112.09 250.6 1118.29 247.8C1122.95 245.692 1127 242.962 1130.42 239.608C1129.95 237.647 1129.71 235.602 1129.71 233.5C1129.71 218.864 1141.57 207 1156.21 207C1163.4 207 1169.91 209.86 1174.69 214.503V160.2C1174.69 146.2 1172.39 134.8 1167.79 126C1163.19 117 1156.19 110.3 1146.79 105.9C1137.59 101.5 1125.79 99.3 1111.39 99.3C1104.39 99.3 1096.59 100.1 1087.99 101.7C1079.59 103.3 1070.79 106 1061.59 109.8C1057.79 111.2 1055.09 113.4 1053.49 116.4C1051.89 119.2 1051.09 122.1 1051.09 125.1C1051.09 128.1 1051.89 130.9 1053.49 133.5C1055.09 135.9 1057.29 137.5 1060.09 138.3C1063.09 139.1 1066.49 138.6 1070.29 136.8C1077.69 133.4 1084.69 131 1091.29 129.6C1098.09 128.2 1104.39 127.5 1110.19 127.5C1120.59 127.5 1127.99 129.7 1132.39 134.1C1136.79 138.5 1138.99 145.7 1138.99 155.7V162H1128.49C1107.29 162 1090.39 163.4 1077.79 166.2C1065.19 169 1056.09 173.6 1050.49 180C1044.89 186.2 1042.09 194.7 1042.09 205.5C1042.09 214.3 1044.39 222.2 1048.99 229.2C1053.79 236.2 1060.29 241.8 1068.49 246ZM1138.99 183.6V190.2C1138.99 197.2 1137.49 203.4 1134.49 208.8C1131.49 214.2 1127.39 218.5 1122.19 221.7C1117.19 224.7 1111.39 226.2 1104.79 226.2C1096.59 226.2 1090.19 224.1 1085.59 219.9C1080.99 215.7 1078.69 210.3 1078.69 203.7C1078.69 198.5 1080.19 194.5 1083.19 191.7C1086.39 188.7 1091.69 186.6 1099.09 185.4C1106.49 184.2 1116.39 183.6 1128.79 183.6H1138.99Z" fill="#FFFEFD"/>
<path d="M117.622 134.5C117.622 144.717 109.339 153 99.1216 153C88.9043 153 80.6216 144.717 80.6216 134.5C80.6216 124.283 88.9043 116 99.1216 116C109.339 116 117.622 124.283 117.622 134.5Z" fill="#DB447F"/>
<path fill-rule="evenodd" clip-rule="evenodd" d="M135.211 48.6549C133.968 46.337 132.259 44.766 130.083 43.9419C122.167 40.8011 114.34 38.7909 106.6 37.9113C98.9077 36.8697 91.3968 36.7803 84.0675 37.6431C76.6923 38.3768 69.5686 39.9653 62.6965 42.4083C52.3883 46.0729 42.8148 51.5098 33.9759 58.7188C25.1369 65.9278 17.6116 75.0664 11.3998 86.1344C10.2325 88.1471 9.87562 90.3799 10.3293 92.833C10.6901 95.3191 11.5852 97.5426 13.0145 99.5036C14.251 100.205 14.4616 100.18 14.8793 100.13C15.1633 100.096 15.5429 100.051 16.4052 100.214C17.9614 100.548 19.1952 99.1179 20.6449 97.4374C21.0941 96.9167 21.5641 96.372 22.0708 95.8483C27.0528 90.7366 32.0324 86.2067 37.0096 82.2587C41.941 78.1817 47.0558 74.6204 52.3539 71.575C57.6521 68.5296 63.3193 65.9339 69.3556 63.7879C75.392 61.642 81.4259 60.0778 87.4575 59.0955C93.4432 57.9842 99.6123 57.3887 105.965 57.309C112.317 57.2293 119.085 57.7283 126.267 58.806C127.074 58.9023 128.005 59.0821 128.963 59.2671C131.639 59.7838 134.527 60.3416 135.522 59.2395C135.859 58.8197 136.142 58.5337 136.375 58.2988C137.044 57.6242 137.295 57.3704 137.199 55.573C137.163 53.1169 136.5 50.8108 135.211 48.6549ZM130.962 89.5259C130.041 87.8112 128.772 86.6502 127.155 86.0428C121.272 83.7276 115.453 82.2495 109.698 81.6084C103.978 80.8473 98.3924 80.791 92.9403 81.4395C87.4543 81.9926 82.1542 83.1782 77.04 84.9963C69.3688 87.7235 62.2417 91.7619 55.6585 97.1117C49.0753 102.461 43.4665 109.238 38.8321 117.442C37.9613 118.934 37.6929 120.588 38.0271 122.403C38.2921 124.244 38.9549 125.889 40.0153 127.339C41.0757 128.789 42.3982 129.663 43.9827 129.959C45.498 130.28 47.0536 129.62 48.6495 127.978C52.3614 124.186 56.0708 120.825 59.7777 117.895C63.4507 114.87 67.2593 112.226 71.2036 109.964C75.148 107.702 79.3662 105.773 83.8584 104.176C88.3505 102.579 92.8401 101.412 97.3272 100.677C101.78 99.8463 106.369 99.3972 111.094 99.3298C115.818 99.2624 120.851 99.6229 126.191 100.411C128.465 100.678 130.106 100.256 131.112 99.1455C132.085 97.9399 132.525 96.4401 132.432 94.646C132.408 92.8273 131.918 91.1206 130.962 89.5259Z" fill="#DB447F"/>
<path d="M294.622 230.5C294.622 240.717 286.339 249 276.122 249C265.904 249 257.622 240.717 257.622 230.5C257.622 220.283 265.904 212 276.122 212C286.339 212 294.622 220.283 294.622 230.5Z" fill="#DB447F"/>
<path fill-rule="evenodd" clip-rule="evenodd" d="M92.2993 166.113L116.13 233.2C118.13 238.8 120.73 242.9 123.93 245.5C127.33 248.1 131.73 249.4 137.13 249.4C142.53 249.4 146.73 248.1 149.73 245.5C152.93 242.9 155.53 238.9 157.53 233.5L206.863 94.1883L250.372 218.213C253.059 207.168 262.668 198.832 274.345 198.059C274.932 198.02 275.525 198 276.122 198C276.554 198 276.984 198.01 277.411 198.031C289.676 198.618 299.755 207.544 302.104 219.262L360.33 55.9001C362.53 49.5001 362.13 44.1001 359.13 39.7001C356.13 35.3001 351.43 33.1001 345.03 33.1001C339.83 33.1001 335.73 34.4001 332.73 37.0001C329.73 39.6001 327.33 43.5001 325.53 48.7001L275.884 193.567L226.53 49.3001C224.53 43.7001 222.13 39.6001 219.33 37.0001C216.53 34.4001 212.73 33.1001 207.93 33.1001C203.13 33.1001 199.23 34.4001 196.23 37.0001C193.23 39.6001 190.73 43.6001 188.73 49.0001L138.466 191.504L123.495 150.92C119.447 160.375 110.058 167 99.1218 167C96.763 167 94.4761 166.692 92.2993 166.113Z" fill="#FFFEFD"/>
<path d="M1174.71 233.5C1174.71 243.717 1166.43 252 1156.21 252C1145.99 252 1137.71 243.717 1137.71 233.5C1137.71 223.283 1145.99 215 1156.21 215C1166.43 215 1174.71 223.283 1174.71 233.5Z" fill="#DB447F"/>
<path fill-rule="evenodd" clip-rule="evenodd" d="M795.565 69.6C799.996 64.8631 802.709 58.4984 802.709 51.5C802.709 46.3603 801.246 41.5624 798.713 37.5H922.045C927.245 37.5 931.245 38.9 934.045 41.7C937.045 44.3 938.545 48.2 938.545 53.4C938.545 58.4 937.045 62.4 934.045 65.4C931.245 68.2 927.245 69.6 922.045 69.6H863.545V231.6C863.545 237.8 861.945 242.7 858.745 246.3C855.545 249.7 850.745 251.4 844.345 251.4C838.145 251.4 833.345 249.7 829.945 246.3C826.745 242.7 825.145 237.8 825.145 231.6V69.6H795.565Z" fill="#FFFEFD"/>
</svg>
