<svg width="934" height="304" viewBox="0 0 934 304" fill="none" xmlns="http://www.w3.org/2000/svg">
<path fill-rule="evenodd" clip-rule="evenodd" d="M137.512 3.66553C132.417 1.22176 126.655 -0.00012207 120.226 -0.00012207C115.374 -0.00012207 111.068 0.855202 107.308 2.56584C103.547 4.27648 100.454 6.65916 98.0279 9.71387C96.5157 11.5999 95.3026 13.6798 94.3889 15.9534V12.0965C94.3889 8.3087 93.4791 5.37618 91.6596 3.29897C89.7188 1.34396 87.0501 0.366437 83.6537 0.366437C80.2572 0.366437 77.6492 1.34396 75.8297 3.29897C74.0101 5.37618 73.1004 8.3087 73.1004 12.0965V37.3158C71.6314 35.7382 69.8475 34.4756 67.7487 33.5278C65.2669 32.407 62.4248 31.8467 59.2224 31.8467C54.9792 31.8467 51.1764 32.6472 47.8139 34.2483C44.5315 35.9294 41.9296 38.171 40.0081 40.9729C38.1668 43.7748 37.2461 46.937 37.2461 50.4594C37.2461 54.7823 38.3669 58.1846 40.6086 60.6663C42.8502 63.2281 46.493 65.0693 51.5367 66.1901C56.5804 67.3109 63.3454 67.8712 71.8317 67.8712H76.0349V70.3929C76.0349 74.3957 75.1542 77.2777 73.3929 79.0388L87.5634 82.2811C88.8502 79.8196 89.6873 76.85 90.0749 73.3721C94.7891 76.7167 98.9171 79.6682 99.9762 81.7091C99.9762 81.7091 108.064 78.0784 112.844 76.0623C111.434 76.3547 110.988 76.4472 110.987 76.4422C110.985 76.4327 112.631 76.0623 112.22 76.0623C105.913 76.0623 101.424 74.7182 98.7558 72.0301C96.0871 69.3419 94.7528 64.9431 94.7528 58.8337V54.9847H101.121C113.979 54.9847 124.229 54.1294 131.871 52.4188C139.513 50.7082 145.032 47.8978 148.429 43.9878C151.825 40.1999 153.524 35.0069 153.524 28.4087C153.524 23.0324 152.129 18.206 149.339 13.9294C146.427 9.65277 142.485 6.23149 137.512 3.66553Z" fill="#35C23B"/>
<path d="M87.3221 304C77.8857 304 68.4494 303.249 59.0131 301.748C49.5767 300.461 40.6766 298.424 32.3125 295.636C23.9485 292.633 16.4423 288.988 9.79401 284.698C5.9337 282.125 3.25292 279.015 1.75168 275.369C0.25045 271.723 -0.285705 268.185 0.143219 264.753C0.786605 261.108 2.18061 257.998 4.32523 255.424C6.68431 252.636 9.57955 250.921 13.0109 250.277C16.4423 249.634 20.1954 250.599 24.2702 253.172C33.7065 258.748 43.679 262.823 54.1877 265.397C64.6963 267.97 75.7411 269.257 87.3221 269.257C104.265 269.257 116.596 266.469 124.317 260.893C132.037 255.103 135.898 247.704 135.898 238.696C135.898 231.19 133.11 225.292 127.534 221.003C122.172 216.714 112.843 213.175 99.5464 210.387L64.1601 202.988C43.7862 198.699 28.5594 191.515 18.4797 181.435C8.61447 171.141 3.68184 157.63 3.68184 140.902C3.68184 130.393 5.82647 120.849 10.1157 112.271C14.4049 103.692 20.4099 96.2934 28.1305 90.074C36.0656 83.8546 45.3947 79.1365 56.1178 75.9195C67.0554 72.4881 79.0653 70.7724 92.1474 70.7724C105.015 70.7724 117.239 72.3809 128.82 75.5978C140.401 78.8148 150.803 83.5329 160.025 89.7523C163.456 92.1114 165.708 95.0067 166.78 98.4381C168.067 101.869 168.389 105.301 167.745 108.732C167.102 111.949 165.601 114.737 163.242 117.096C160.883 119.455 157.88 120.849 154.234 121.278C150.803 121.707 146.835 120.635 142.332 118.061C134.396 113.558 126.354 110.341 118.205 108.411C110.055 106.48 101.262 105.515 91.8258 105.515C81.9605 105.515 73.4892 106.909 66.412 109.697C59.3347 112.485 53.866 116.453 50.0057 121.6C46.3598 126.533 44.5369 132.43 44.5369 139.293C44.5369 147.014 47.1104 153.233 52.2575 157.951C57.4046 162.455 66.1975 165.994 78.6363 168.567L113.701 175.966C134.933 180.47 150.696 187.547 160.99 197.198C171.498 206.849 176.753 219.716 176.753 235.801C176.753 246.095 174.608 255.424 170.319 263.788C166.244 272.152 160.239 279.337 152.304 285.342C144.583 291.347 135.254 295.958 124.317 299.175C113.379 302.391 101.048 304 87.3221 304Z" fill="#D4959C"/>
<path d="M260.026 304C248.66 304 238.473 301.855 229.465 297.566C220.672 293.062 213.702 287.057 208.555 279.551C203.622 272.045 201.156 263.574 201.156 254.138C201.156 242.557 204.159 233.442 210.164 226.794C216.169 219.931 225.927 214.998 239.438 211.996C252.949 208.993 271.071 207.492 293.804 207.492H309.888V230.654H294.125C280.829 230.654 270.213 231.297 262.278 232.584C254.343 233.871 248.66 236.123 245.228 239.34C242.011 242.342 240.403 246.631 240.403 252.207C240.403 259.285 242.869 265.075 247.802 269.579C252.734 274.082 259.597 276.334 268.39 276.334C275.467 276.334 281.687 274.726 287.048 271.509C292.624 268.078 297.021 263.467 300.238 257.676C303.455 251.886 305.063 245.237 305.063 237.731V200.736C305.063 190.013 302.704 182.293 297.986 177.575C293.268 172.856 285.333 170.497 274.18 170.497C267.961 170.497 261.206 171.248 253.914 172.749C246.837 174.25 239.33 176.824 231.395 180.47C227.321 182.4 223.675 182.936 220.458 182.078C217.455 181.22 215.096 179.505 213.381 176.931C211.665 174.143 210.807 171.141 210.807 167.924C210.807 164.707 211.665 161.597 213.381 158.595C215.096 155.378 217.991 153.019 222.066 151.517C231.931 147.443 241.368 144.547 250.375 142.832C259.597 141.116 267.961 140.258 275.467 140.258C290.909 140.258 303.562 142.617 313.427 147.335C323.507 152.054 331.013 159.238 335.946 168.889C340.878 178.325 343.345 190.55 343.345 205.562V282.768C343.345 289.417 341.736 294.564 338.519 298.209C335.302 301.641 330.691 303.357 324.686 303.357C318.681 303.357 313.963 301.641 310.532 298.209C307.315 294.564 305.706 289.417 305.706 282.768V267.327H308.28C306.779 274.833 303.776 281.374 299.273 286.95C294.983 292.312 289.515 296.494 282.866 299.496C276.218 302.499 268.604 304 260.026 304Z" fill="#D4959C"/>
<path d="M456.219 304C442.278 304 430.59 301.641 421.154 296.923C411.932 292.205 405.069 285.342 400.566 276.334C396.062 267.112 393.81 255.746 393.81 242.235V173.714H377.082C371.935 173.714 367.967 172.427 365.179 169.854C362.391 167.066 360.997 163.313 360.997 158.595C360.997 153.662 362.391 149.909 365.179 147.335C367.967 144.762 371.935 143.475 377.082 143.475H393.81V114.201C393.81 107.553 395.526 102.513 398.957 99.0814C402.603 95.65 407.643 93.9344 414.077 93.9344C420.511 93.9344 425.443 95.65 428.875 99.0814C432.306 102.513 434.022 107.553 434.022 114.201V143.475H468.121C473.268 143.475 477.236 144.762 480.024 147.335C482.812 149.909 484.206 153.662 484.206 158.595C484.206 163.313 482.812 167.066 480.024 169.854C477.236 172.427 473.268 173.714 468.121 173.714H434.022V239.983C434.022 250.277 436.274 257.998 440.777 263.145C445.281 268.292 452.573 270.866 462.652 270.866C466.298 270.866 469.515 270.544 472.303 269.9C475.091 269.257 477.558 268.828 479.702 268.614C482.276 268.399 484.42 269.257 486.136 271.187C487.852 272.903 488.71 276.549 488.71 282.125C488.71 286.414 487.959 290.274 486.458 293.706C485.171 296.923 482.705 299.175 479.059 300.461C476.271 301.319 472.625 302.07 468.121 302.713C463.618 303.571 459.65 304 456.219 304Z" fill="#D4959C"/>
<path d="M531.651 303.035C525.217 303.035 520.284 301.105 516.853 297.244C513.421 293.384 511.706 288.023 511.706 281.16V163.098C511.706 156.021 513.421 150.66 516.853 147.014C520.284 143.153 525.217 141.223 531.651 141.223C538.084 141.223 543.017 143.153 546.448 147.014C550.094 150.66 551.917 156.021 551.917 163.098V281.16C551.917 288.023 550.202 293.384 546.77 297.244C543.339 301.105 538.299 303.035 531.651 303.035ZM531.651 111.306C524.144 111.306 518.247 109.483 513.957 105.837C509.883 101.977 507.845 96.7224 507.845 90.074C507.845 83.2112 509.883 77.9569 513.957 74.3111C518.247 70.6652 524.144 68.8423 531.651 68.8423C539.371 68.8423 545.269 70.6652 549.344 74.3111C553.418 77.9569 555.456 83.2112 555.456 90.074C555.456 96.7224 553.418 101.977 549.344 105.837C545.269 109.483 539.371 111.306 531.651 111.306Z" fill="#D4959C"/>
<path d="M669.297 304C651.712 304 636.592 301.534 623.939 296.601C611.5 291.454 601.849 284.055 594.986 274.404C588.338 264.753 585.014 253.172 585.014 239.661C585.014 228.938 587.159 219.502 591.448 211.352C595.951 202.988 602.064 196.233 609.784 191.086C617.505 185.939 626.298 182.722 636.163 181.435V188.19C622.438 185.188 611.393 178.647 603.029 168.567C594.879 158.273 590.804 146.049 590.804 131.894C590.804 119.026 594.021 108.089 600.455 99.0814C606.889 89.8596 616.004 82.8896 627.799 78.1714C639.595 73.2388 653.427 70.7724 669.297 70.7724C685.382 70.7724 699.322 73.2388 711.118 78.1714C722.913 82.8896 732.028 89.8596 738.462 99.0814C744.895 108.089 748.112 119.026 748.112 131.894C748.112 141.33 746.182 150.016 742.322 157.951C738.676 165.886 733.422 172.427 726.559 177.575C719.911 182.722 712.083 186.153 703.075 187.869V181.435C718.088 183.579 730.205 189.906 739.427 200.415C748.863 210.709 753.581 223.791 753.581 239.661C753.581 253.172 750.15 264.753 743.287 274.404C736.639 284.055 726.988 291.454 714.335 296.601C701.896 301.534 686.883 304 669.297 304ZM669.297 271.831C684.524 271.831 695.998 268.935 703.719 263.145C711.439 257.14 715.3 248.347 715.3 236.766C715.3 225.185 711.439 216.499 703.719 210.709C695.998 204.918 684.524 202.023 669.297 202.023C654.285 202.023 642.811 204.918 634.876 210.709C627.156 216.499 623.295 225.185 623.295 236.766C623.295 248.347 627.156 257.14 634.876 263.145C642.811 268.935 654.285 271.831 669.297 271.831ZM669.297 169.854C677.876 169.854 685.168 168.567 691.173 165.994C697.178 163.206 701.789 159.238 705.005 154.091C708.222 148.944 709.831 142.939 709.831 136.076C709.831 125.782 706.185 117.74 698.893 111.949C691.816 105.944 681.951 102.942 669.297 102.942C656.644 102.942 646.779 105.944 639.702 111.949C632.624 117.74 629.086 125.782 629.086 136.076C629.086 146.585 632.624 154.842 639.702 160.847C646.779 166.851 656.644 169.854 669.297 169.854Z" fill="#D4959C"/>
<path d="M806.535 303.357C800.101 303.357 795.168 301.641 791.737 298.209C788.306 294.564 786.59 289.417 786.59 282.768V161.168C786.59 154.52 788.306 149.48 791.737 146.049C795.168 142.617 799.994 140.902 806.213 140.902C812.433 140.902 817.258 142.617 820.689 146.049C824.121 149.48 825.836 154.52 825.836 161.168V183.043L822.298 175.001C827.016 163.635 834.308 155.056 844.173 149.266C854.253 143.261 865.619 140.258 878.272 140.258C890.926 140.258 901.327 142.617 909.477 147.335C917.626 152.054 923.738 159.238 927.813 168.889C931.888 178.325 933.925 190.335 933.925 204.918V282.768C933.925 289.417 932.21 294.564 928.778 298.209C925.347 301.641 920.414 303.357 913.98 303.357C907.546 303.357 902.507 301.641 898.861 298.209C895.429 294.564 893.714 289.417 893.714 282.768V206.849C893.714 194.624 891.355 185.724 886.636 180.148C882.133 174.572 875.055 171.784 865.405 171.784C853.609 171.784 844.173 175.537 837.096 183.043C830.233 190.335 826.801 200.093 826.801 212.317V282.768C826.801 296.494 820.046 303.357 806.535 303.357Z" fill="#D4959C"/>
<path fill-rule="evenodd" clip-rule="evenodd" d="M516.853 297.244C520.284 301.105 525.217 303.035 531.651 303.035C538.299 303.035 543.339 301.105 546.77 297.244C550.201 293.384 551.917 288.023 551.917 281.16V163.098C551.917 156.021 550.094 150.66 546.448 147.014C543.017 143.153 538.084 141.223 531.651 141.223C525.217 141.223 520.284 143.153 516.853 147.014C513.421 150.66 511.706 156.021 511.706 163.098V281.16C511.706 288.023 513.421 293.384 516.853 297.244ZM513.957 105.837C518.247 109.483 524.144 111.306 531.651 111.306C539.371 111.306 545.269 109.483 549.344 105.837C550.376 104.859 551.278 103.791 552.049 102.633C548.195 100.211 544.314 98.3114 540.375 97.4204C531.128 95.2055 521.882 99.224 512.406 104.182C512.885 104.76 513.402 105.311 513.957 105.837ZM393.81 115.366C399.173 117.198 404.505 118.906 409.725 120.157C417.66 122.058 425.856 122.899 434.022 123.075V143.475H468.121C473.268 143.475 477.236 144.762 480.024 147.335C482.812 149.909 484.206 153.662 484.206 158.595C484.206 163.313 482.812 167.066 480.024 169.854C477.236 172.427 473.268 173.714 468.121 173.714H434.022V239.983C434.022 250.277 436.274 257.998 440.777 263.145C445.281 268.292 452.573 270.866 462.652 270.866C466.298 270.866 469.515 270.544 472.303 269.9C475.091 269.257 477.558 268.828 479.702 268.614C482.276 268.399 484.42 269.257 486.136 271.187C487.852 272.903 488.71 276.549 488.71 282.125C488.71 286.414 487.959 290.274 486.458 293.706C485.171 296.923 482.705 299.175 479.059 300.461C476.271 301.319 472.625 302.07 468.121 302.713C463.618 303.571 459.65 304 456.219 304C442.279 304 430.59 301.641 421.154 296.923C411.932 292.205 405.069 285.342 400.566 276.334C396.062 267.112 393.81 255.746 393.81 242.235V173.714H377.082C371.935 173.714 367.967 172.427 365.179 169.854C362.391 167.066 360.997 163.313 360.997 158.595C360.997 153.662 362.391 149.909 365.179 147.335C367.967 144.762 371.935 143.475 377.082 143.475H393.81V115.366ZM527.966 69H535.426C534.22 68.8949 532.962 68.8423 531.651 68.8423C530.376 68.8423 529.148 68.8949 527.966 69ZM591.005 126.448C590.871 128.223 590.804 130.038 590.804 131.894C590.804 146.049 594.879 158.273 603.029 168.567C608.722 175.428 615.657 180.649 623.833 184.231C618.811 185.905 614.128 188.19 609.784 191.086C602.064 196.233 595.951 202.988 591.448 211.352C587.159 219.502 585.014 228.938 585.014 239.661C585.014 253.172 588.338 264.753 594.986 274.404C601.849 284.055 611.5 291.454 623.939 296.601C636.592 301.534 651.712 304 669.297 304C686.883 304 701.896 301.534 714.335 296.601C726.988 291.454 736.639 284.055 743.287 274.404C750.15 264.753 753.581 253.172 753.581 239.661C753.581 223.791 748.863 210.709 739.427 200.415C732.814 192.879 724.712 187.494 715.121 184.259C719.258 182.503 723.071 180.275 726.559 177.575C733.422 172.427 738.676 165.886 742.322 157.951C746.182 150.016 748.112 141.33 748.112 131.894C748.112 126.98 747.643 122.347 746.705 117.995C736.497 123.671 726.168 128.766 715.412 130.388C713.458 130.7 711.488 130.884 709.507 130.959C709.723 132.598 709.831 134.304 709.831 136.076C709.831 142.939 708.222 148.944 705.005 154.091C701.789 159.238 697.178 163.206 691.173 165.994C685.168 168.567 677.876 169.854 669.297 169.854C656.644 169.854 646.779 166.851 639.702 160.847C632.625 154.842 629.086 146.585 629.086 136.076C629.086 130.247 630.22 125.141 632.489 120.756C631.09 120.894 629.697 121.072 628.312 121.293C624.165 121.919 620.081 122.889 616.043 123.848C607.548 125.865 599.256 127.833 591.005 126.448ZM12.6411 107.683C11.7419 109.173 10.9001 110.702 10.1157 112.271C5.82647 120.849 3.68184 130.393 3.68184 140.902C3.68184 157.63 8.61447 171.141 18.4797 181.435C28.5594 191.515 43.7863 198.699 64.1601 202.988L99.5464 210.387C112.843 213.175 122.172 216.714 127.534 221.003C133.11 225.292 135.898 231.19 135.898 238.696C135.898 247.704 132.037 255.103 124.317 260.893C116.596 266.469 104.265 269.257 87.3221 269.257C75.7411 269.257 64.6963 267.97 54.1877 265.397C43.679 262.823 33.7065 258.748 24.2702 253.172C20.1954 250.599 16.4423 249.634 13.0109 250.277C9.57955 250.921 6.68431 252.636 4.32523 255.424C2.18061 257.998 0.786605 261.108 0.143219 264.753C-0.285705 268.185 0.25045 271.723 1.75168 275.369C3.25292 279.015 5.9337 282.125 9.79401 284.698C16.4423 288.988 23.9485 292.633 32.3125 295.636C40.6766 298.424 49.5767 300.461 59.0131 301.748C68.4494 303.249 77.8857 304 87.3221 304C101.048 304 113.379 302.391 124.317 299.175C135.254 295.958 144.583 291.347 152.304 285.342C160.239 279.337 166.244 272.152 170.319 263.788C174.608 255.424 176.753 246.095 176.753 235.801C176.753 219.716 171.498 206.849 160.99 197.198C150.696 187.547 134.933 180.47 113.701 175.966L78.6363 168.567C66.1975 165.994 57.4046 162.455 52.2575 157.951C47.1104 153.233 44.5369 147.014 44.5369 139.293C44.5369 132.43 46.3598 126.533 50.0057 121.6C53.866 116.453 59.3347 112.485 66.412 109.697C70.8177 107.962 75.7636 106.766 81.2497 106.111C81.0495 106.036 80.8494 105.961 80.6493 105.886C73.8707 103.342 67.179 100.831 60.4874 100.831C53.9122 100.831 47.4964 102.993 41.101 105.149C32.8334 107.936 24.5997 110.711 16.0999 108.789C14.9471 108.512 13.7943 108.139 12.6411 107.683ZM115.557 107.822C120.234 105.733 124.934 102.895 129.688 100.026C135.555 96.4843 141.503 92.8937 147.587 90.5995C150.749 89.3374 153.951 88.4676 157.177 87.903C158.138 88.504 159.088 89.1204 160.025 89.7523C163.456 92.1114 165.708 95.0067 166.78 98.4381C168.067 101.869 168.389 105.301 167.745 108.732C167.102 111.949 165.601 114.737 163.242 117.096C160.883 119.455 157.88 120.849 154.234 121.278C150.803 121.707 146.835 120.635 142.332 118.061C134.396 113.558 126.354 110.341 118.205 108.411C117.33 108.203 116.447 108.007 115.557 107.822ZM229.465 297.566C238.473 301.855 248.66 304 260.026 304C268.604 304 276.218 302.499 282.866 299.496C289.515 296.494 294.983 292.312 299.273 286.95C301.946 283.64 304.091 279.989 305.706 275.999V282.768C305.706 289.417 307.315 294.564 310.532 298.209C313.963 301.641 318.681 303.357 324.686 303.357C330.691 303.357 335.302 301.641 338.519 298.209C341.736 294.564 343.345 289.417 343.345 282.768V205.562C343.345 190.55 340.878 178.325 335.946 168.889C331.013 159.238 323.507 152.054 313.427 147.335C303.562 142.617 290.909 140.258 275.467 140.258C267.961 140.258 259.597 141.116 250.375 142.832C241.368 144.547 231.931 147.443 222.066 151.517C217.991 153.019 215.096 155.378 213.381 158.595C211.665 161.597 210.807 164.707 210.807 167.924C210.807 171.141 211.665 174.143 213.381 176.931C215.096 179.505 217.455 181.22 220.458 182.078C223.675 182.936 227.321 182.4 231.395 180.47C239.33 176.824 246.837 174.25 253.914 172.749C261.206 171.248 267.961 170.497 274.181 170.497C285.333 170.497 293.268 172.856 297.986 177.575C302.704 182.293 305.063 190.013 305.063 200.736V207.492H293.804C271.071 207.492 252.949 208.993 239.438 211.996C225.927 214.998 216.169 219.931 210.164 226.794C204.159 233.442 201.156 242.557 201.156 254.138C201.156 263.574 203.622 272.045 208.555 279.551C213.702 287.057 220.672 293.062 229.465 297.566ZM305.063 230.654V237.731C305.063 245.237 303.455 251.886 300.238 257.676C297.021 263.467 292.624 268.078 287.048 271.509C281.687 274.726 275.467 276.334 268.39 276.334C259.597 276.334 252.734 274.082 247.802 269.579C242.869 265.075 240.403 259.285 240.403 252.207C240.403 246.631 242.011 242.342 245.228 239.34C248.66 236.123 254.343 233.871 262.278 232.584C270.213 231.297 280.829 230.654 294.125 230.654H305.063ZM669.297 271.831C684.524 271.831 695.998 268.935 703.719 263.145C711.439 257.14 715.3 248.347 715.3 236.766C715.3 225.185 711.439 216.499 703.719 210.709C695.998 204.918 684.524 202.023 669.297 202.023C654.285 202.023 642.811 204.918 634.876 210.709C627.156 216.499 623.295 225.185 623.295 236.766C623.295 248.347 627.156 257.14 634.876 263.145C642.811 268.935 654.285 271.831 669.297 271.831ZM791.737 298.209C795.168 301.641 800.101 303.357 806.535 303.357C820.046 303.357 826.801 296.494 826.801 282.768V212.317C826.801 200.093 830.233 190.335 837.096 183.043C844.173 175.537 853.609 171.784 865.405 171.784C875.055 171.784 882.133 174.572 886.636 180.148C891.355 185.724 893.714 194.624 893.714 206.849V282.768C893.714 289.417 895.429 294.564 898.861 298.209C902.507 301.641 907.546 303.357 913.98 303.357C920.414 303.357 925.347 301.641 928.778 298.209C932.21 294.564 933.925 289.417 933.925 282.768V204.918C933.925 190.335 931.888 178.325 927.813 168.889C923.738 159.238 917.626 152.054 909.477 147.335C901.327 142.617 890.926 140.258 878.272 140.258C865.619 140.258 854.253 143.261 844.173 149.266C836.507 153.765 830.394 159.949 825.836 167.816V161.168C825.836 154.52 824.121 149.48 820.689 146.049C817.258 142.617 812.432 140.902 806.213 140.902C799.994 140.902 795.168 142.617 791.737 146.049C788.306 149.48 786.59 154.52 786.59 161.168V282.768C786.59 289.417 788.306 294.564 791.737 298.209Z" fill="#FFFBFA"/>
</svg>
