<svg width="934" height="304" viewBox="0 0 934 304" fill="none" xmlns="http://www.w3.org/2000/svg">
<path fill-rule="evenodd" clip-rule="evenodd" d="M137.512 3.66553C132.417 1.22176 126.655 -0.00012207 120.226 -0.00012207C115.374 -0.00012207 111.068 0.855202 107.308 2.56584C103.547 4.27648 100.454 6.65916 98.0281 9.71387C96.5158 11.5999 95.3028 13.6798 94.389 15.9534V12.0965C94.389 8.3087 93.4792 5.37618 91.6597 3.29897C89.7189 1.34396 87.0502 0.366437 83.6538 0.366437C80.2573 0.366437 77.6493 1.34396 75.8298 3.29897C74.0103 5.37618 73.1005 8.3087 73.1005 12.0965V37.3158C71.6315 35.7382 69.8476 34.4756 67.7488 33.5278C65.267 32.407 62.4249 31.8467 59.2225 31.8467C54.9794 31.8467 51.1765 32.6472 47.8141 34.2483C44.5316 35.9294 41.9297 38.171 40.0083 40.9729C38.1669 43.7748 37.2462 46.937 37.2462 50.4594C37.2462 54.7823 38.367 58.1846 40.6087 60.6663C42.8504 63.2281 46.4931 65.0693 51.5368 66.1901C56.5806 67.3109 63.3456 67.8712 71.8319 67.8712H76.035V70.3929C76.035 74.3957 75.1543 77.2777 73.393 79.0388L87.5635 82.2811C88.8503 79.8196 89.6874 76.85 90.075 73.3721C94.7893 76.7167 98.9173 79.6682 99.9764 81.7091C99.9764 81.7091 108.064 78.0784 112.844 76.0623C111.434 76.3547 110.988 76.4472 110.987 76.4422C110.985 76.4327 112.631 76.0623 112.22 76.0623C105.913 76.0623 101.425 74.7182 98.7559 72.0301C96.0872 69.3419 94.7529 64.9431 94.7529 58.8337V54.9847H101.121C113.979 54.9847 124.229 54.1294 131.871 52.4188C139.513 50.7082 145.033 47.8978 148.429 43.9878C151.826 40.1999 153.524 35.0069 153.524 28.4087C153.524 23.0324 152.129 18.206 149.339 13.9294C146.428 9.65277 142.485 6.23149 137.512 3.66553Z" fill="#35C23B"/>
<path d="M87.3222 304C77.8858 304 68.4495 303.249 59.0132 301.748C49.5768 300.461 40.6767 298.424 32.3127 295.636C23.9486 292.633 16.4425 288.988 9.79414 284.698C5.93382 282.125 3.25304 279.015 1.75181 275.369C0.250572 271.723 -0.285583 268.185 0.143341 264.753C0.786727 261.108 2.18073 257.998 4.32535 255.424C6.68444 252.636 9.57967 250.921 13.0111 250.277C16.4425 249.634 20.1955 250.599 24.2703 253.172C33.7067 258.748 43.6791 262.823 54.1878 265.397C64.6964 267.97 75.7412 269.257 87.3222 269.257C104.265 269.257 116.596 266.469 124.317 260.893C132.038 255.103 135.898 247.704 135.898 238.696C135.898 231.19 133.11 225.292 127.534 221.003C122.172 216.714 112.843 213.175 99.5465 210.387L64.1603 202.988C43.7864 198.699 28.5596 191.515 18.4798 181.435C8.61459 171.141 3.68196 157.63 3.68196 140.902C3.68196 130.393 5.82659 120.849 10.1158 112.271C14.4051 103.692 20.41 96.2934 28.1306 90.074C36.0657 83.8546 45.3948 79.1365 56.1179 75.9195C67.0555 72.4881 79.0654 70.7724 92.1476 70.7724C105.015 70.7724 117.24 72.3809 128.821 75.5978C140.402 78.8148 150.803 83.5329 160.025 89.7523C163.456 92.1114 165.708 95.0067 166.78 98.4381C168.067 101.869 168.389 105.301 167.745 108.732C167.102 111.949 165.601 114.737 163.242 117.096C160.883 119.455 157.88 120.849 154.234 121.278C150.803 121.707 146.835 120.635 142.332 118.061C134.397 113.558 126.354 110.341 118.205 108.411C110.055 106.48 101.262 105.515 91.8259 105.515C81.9606 105.515 73.4894 106.909 66.4121 109.697C59.3349 112.485 53.8661 116.453 50.0058 121.6C46.3599 126.533 44.537 132.43 44.537 139.293C44.537 147.014 47.1105 153.233 52.2576 157.951C57.4047 162.455 66.1977 165.994 78.6365 168.567L113.701 175.966C134.933 180.47 150.696 187.547 160.99 197.198C171.499 206.849 176.753 219.716 176.753 235.801C176.753 246.095 174.608 255.424 170.319 263.788C166.244 272.152 160.239 279.337 152.304 285.342C144.584 291.347 135.254 295.958 124.317 299.175C113.379 302.391 101.048 304 87.3222 304Z" fill="#D4959C"/>
<path d="M260.026 304C248.66 304 238.473 301.855 229.465 297.566C220.672 293.062 213.702 287.057 208.555 279.551C203.623 272.045 201.156 263.574 201.156 254.138C201.156 242.557 204.159 233.442 210.164 226.794C216.169 219.931 225.927 214.998 239.438 211.996C252.949 208.993 271.071 207.492 293.804 207.492H309.889V230.654H294.126C280.829 230.654 270.213 231.297 262.278 232.584C254.343 233.871 248.66 236.123 245.228 239.34C242.011 242.342 240.403 246.631 240.403 252.207C240.403 259.285 242.869 265.075 247.802 269.579C252.734 274.082 259.597 276.334 268.39 276.334C275.467 276.334 281.687 274.726 287.048 271.509C292.624 268.078 297.021 263.467 300.238 257.676C303.455 251.886 305.063 245.237 305.063 237.731V200.736C305.063 190.013 302.704 182.293 297.986 177.575C293.268 172.856 285.333 170.497 274.181 170.497C267.961 170.497 261.206 171.248 253.914 172.749C246.837 174.25 239.331 176.824 231.395 180.47C227.321 182.4 223.675 182.936 220.458 182.078C217.455 181.22 215.096 179.505 213.381 176.931C211.665 174.143 210.807 171.141 210.807 167.924C210.807 164.707 211.665 161.597 213.381 158.595C215.096 155.378 217.992 153.019 222.066 151.517C231.932 147.443 241.368 144.547 250.375 142.832C259.597 141.116 267.961 140.258 275.467 140.258C290.909 140.258 303.562 142.617 313.427 147.335C323.507 152.054 331.013 159.238 335.946 168.889C340.878 178.325 343.345 190.55 343.345 205.562V282.768C343.345 289.417 341.736 294.564 338.519 298.209C335.302 301.641 330.691 303.357 324.686 303.357C318.682 303.357 313.963 301.641 310.532 298.209C307.315 294.564 305.707 289.417 305.707 282.768V267.327H308.28C306.779 274.833 303.776 281.374 299.273 286.95C294.983 292.312 289.515 296.494 282.866 299.496C276.218 302.499 268.605 304 260.026 304Z" fill="#D4959C"/>
<path d="M456.219 304C442.279 304 430.59 301.641 421.154 296.923C411.932 292.205 405.07 285.342 400.566 276.334C396.062 267.112 393.81 255.746 393.81 242.235V173.714H377.082C371.935 173.714 367.968 172.427 365.18 169.854C362.392 167.066 360.998 163.313 360.998 158.595C360.998 153.662 362.392 149.909 365.18 147.335C367.968 144.762 371.935 143.475 377.082 143.475H393.81V114.201C393.81 107.553 395.526 102.513 398.957 99.0814C402.603 95.65 407.643 93.9344 414.077 93.9344C420.511 93.9344 425.443 95.65 428.875 99.0814C432.306 102.513 434.022 107.553 434.022 114.201V143.475H468.121C473.268 143.475 477.236 144.762 480.024 147.335C482.812 149.909 484.206 153.662 484.206 158.595C484.206 163.313 482.812 167.066 480.024 169.854C477.236 172.427 473.268 173.714 468.121 173.714H434.022V239.983C434.022 250.277 436.274 257.998 440.777 263.145C445.281 268.292 452.573 270.866 462.653 270.866C466.298 270.866 469.515 270.544 472.303 269.9C475.091 269.257 477.558 268.828 479.702 268.614C482.276 268.399 484.42 269.257 486.136 271.187C487.852 272.903 488.71 276.549 488.71 282.125C488.71 286.414 487.959 290.274 486.458 293.706C485.171 296.923 482.705 299.175 479.059 300.461C476.271 301.319 472.625 302.07 468.121 302.713C463.618 303.571 459.65 304 456.219 304Z" fill="#D4959C"/>
<path d="M531.651 303.035C525.217 303.035 520.284 301.105 516.853 297.244C513.421 293.384 511.706 288.023 511.706 281.16V163.098C511.706 156.021 513.421 150.66 516.853 147.014C520.284 143.153 525.217 141.223 531.651 141.223C538.085 141.223 543.017 143.153 546.449 147.014C550.094 150.66 551.917 156.021 551.917 163.098V281.16C551.917 288.023 550.202 293.384 546.77 297.244C543.339 301.105 538.299 303.035 531.651 303.035ZM531.651 111.306C524.144 111.306 518.247 109.483 513.958 105.837C509.883 101.977 507.845 96.7224 507.845 90.074C507.845 83.2112 509.883 77.9569 513.958 74.3111C518.247 70.6652 524.144 68.8423 531.651 68.8423C539.371 68.8423 545.269 70.6652 549.344 74.3111C553.419 77.9569 555.456 83.2112 555.456 90.074C555.456 96.7224 553.419 101.977 549.344 105.837C545.269 109.483 539.371 111.306 531.651 111.306Z" fill="#D4959C"/>
<path d="M669.298 304C651.712 304 636.592 301.534 623.939 296.601C611.5 291.454 601.849 284.055 594.986 274.404C588.338 264.753 585.014 253.172 585.014 239.661C585.014 228.938 587.159 219.502 591.448 211.352C595.952 202.988 602.064 196.233 609.784 191.086C617.505 185.939 626.298 182.722 636.163 181.435V188.19C622.438 185.188 611.393 178.647 603.029 168.567C594.879 158.273 590.805 146.049 590.805 131.894C590.805 119.026 594.021 108.089 600.455 99.0814C606.889 89.8596 616.004 82.8896 627.799 78.1714C639.595 73.2388 653.427 70.7724 669.298 70.7724C685.382 70.7724 699.322 73.2388 711.118 78.1714C722.913 82.8896 732.028 89.8596 738.462 99.0814C744.895 108.089 748.112 119.026 748.112 131.894C748.112 141.33 746.182 150.016 742.322 157.951C738.676 165.886 733.422 172.427 726.559 177.575C719.911 182.722 712.083 186.153 703.075 187.869V181.435C718.088 183.579 730.205 189.906 739.427 200.415C748.863 210.709 753.581 223.791 753.581 239.661C753.581 253.172 750.15 264.753 743.287 274.404C736.639 284.055 726.988 291.454 714.335 296.601C701.896 301.534 686.884 304 669.298 304ZM669.298 271.831C684.524 271.831 695.998 268.935 703.719 263.145C711.439 257.14 715.3 248.347 715.3 236.766C715.3 225.185 711.439 216.499 703.719 210.709C695.998 204.918 684.524 202.023 669.298 202.023C654.285 202.023 642.812 204.918 634.876 210.709C627.156 216.499 623.295 225.185 623.295 236.766C623.295 248.347 627.156 257.14 634.876 263.145C642.812 268.935 654.285 271.831 669.298 271.831ZM669.298 169.854C677.876 169.854 685.168 168.567 691.173 165.994C697.178 163.206 701.789 159.238 705.006 154.091C708.223 148.944 709.831 142.939 709.831 136.076C709.831 125.782 706.185 117.74 698.893 111.949C691.816 105.944 681.951 102.942 669.298 102.942C656.644 102.942 646.779 105.944 639.702 111.949C632.625 117.74 629.086 125.782 629.086 136.076C629.086 146.585 632.625 154.842 639.702 160.847C646.779 166.851 656.644 169.854 669.298 169.854Z" fill="#D4959C"/>
<path d="M806.535 303.357C800.101 303.357 795.168 301.641 791.737 298.209C788.306 294.564 786.59 289.417 786.59 282.768V161.168C786.59 154.52 788.306 149.48 791.737 146.049C795.168 142.617 799.994 140.902 806.213 140.902C812.433 140.902 817.258 142.617 820.689 146.049C824.121 149.48 825.837 154.52 825.837 161.168V183.043L822.298 175.001C827.016 163.635 834.308 155.056 844.173 149.266C854.253 143.261 865.619 140.258 878.272 140.258C890.926 140.258 901.327 142.617 909.477 147.335C917.626 152.054 923.738 159.238 927.813 168.889C931.888 178.325 933.925 190.335 933.925 204.918V282.768C933.925 289.417 932.21 294.564 928.778 298.209C925.347 301.641 920.414 303.357 913.98 303.357C907.547 303.357 902.507 301.641 898.861 298.209C895.429 294.564 893.714 289.417 893.714 282.768V206.849C893.714 194.624 891.355 185.724 886.637 180.148C882.133 174.572 875.056 171.784 865.405 171.784C853.609 171.784 844.173 175.537 837.096 183.043C830.233 190.335 826.802 200.093 826.802 212.317V282.768C826.802 296.494 820.046 303.357 806.535 303.357Z" fill="#D4959C"/>
<path fill-rule="evenodd" clip-rule="evenodd" d="M516.853 297.244C520.284 301.105 525.217 303.035 531.651 303.035C538.299 303.035 543.339 301.105 546.77 297.244C550.202 293.384 551.917 288.023 551.917 281.16V163.098C551.917 156.021 550.094 150.66 546.449 147.014C543.017 143.153 538.085 141.223 531.651 141.223C525.217 141.223 520.284 143.153 516.853 147.014C513.421 150.66 511.706 156.021 511.706 163.098V281.16C511.706 288.023 513.421 293.384 516.853 297.244ZM516.765 107.83C520.705 110.147 525.667 111.306 531.651 111.306C539.011 111.306 544.715 109.649 548.762 106.335C545.988 104.575 543.196 103.214 540.375 102.463C532.551 100.256 524.728 103.304 516.765 107.83ZM393.81 123.593C399.173 125.749 404.505 127.761 409.725 129.233C417.66 131.471 425.856 132.462 434.022 132.668V143.475H468.121C473.268 143.475 477.236 144.762 480.024 147.335C482.812 149.909 484.206 153.662 484.206 158.595C484.206 163.313 482.812 167.066 480.024 169.854C477.236 172.427 473.268 173.714 468.121 173.714H434.022V239.983C434.022 250.277 436.274 257.998 440.777 263.145C445.281 268.292 452.573 270.866 462.653 270.866C466.298 270.866 469.515 270.544 472.303 269.9C475.091 269.257 477.558 268.828 479.702 268.614C482.276 268.399 484.42 269.257 486.136 271.187C487.852 272.903 488.71 276.549 488.71 282.125C488.71 286.414 487.959 290.274 486.458 293.706C485.171 296.923 482.705 299.175 479.059 300.461C476.271 301.319 472.625 302.07 468.121 302.713C463.618 303.571 459.65 304 456.219 304C442.279 304 430.59 301.641 421.154 296.923C411.932 292.205 405.07 285.342 400.566 276.334C396.062 267.112 393.81 255.746 393.81 242.235V173.714H377.082C371.935 173.714 367.968 172.427 365.18 169.854C362.392 167.066 360.998 163.313 360.998 158.595C360.998 153.662 362.392 149.909 365.18 147.335C367.968 144.762 371.935 143.475 377.082 143.475H393.81V123.593ZM527.966 69H535.426C534.22 68.8949 532.962 68.8423 531.651 68.8423C530.376 68.8423 529.148 68.8949 527.966 69ZM590.961 136.631C591.78 148.794 595.803 159.439 603.029 168.567C608.722 175.428 615.657 180.649 623.833 184.231C618.811 185.905 614.128 188.19 609.784 191.086C602.064 196.233 595.952 202.988 591.448 211.352C587.159 219.502 585.014 228.938 585.014 239.661C585.014 253.172 588.338 264.753 594.987 274.404C601.849 284.055 611.5 291.454 623.939 296.601C636.592 301.534 651.712 304 669.298 304C686.883 304 701.896 301.534 714.335 296.601C726.988 291.454 736.639 284.055 743.287 274.404C750.15 264.753 753.581 253.172 753.581 239.661C753.581 223.791 748.863 210.709 739.427 200.415C732.814 192.879 724.712 187.494 715.121 184.259C719.258 182.503 723.071 180.275 726.559 177.575C733.422 172.427 738.676 165.886 742.322 157.951C746.182 150.016 748.112 141.33 748.112 131.894C748.112 129.855 748.032 127.864 747.87 125.922C737.283 132.909 726.578 139.297 715.412 141.279C713.425 141.653 711.422 141.87 709.406 141.956C708.735 146.426 707.268 150.471 705.006 154.091C701.789 159.238 697.178 163.206 691.173 165.994C685.168 168.567 677.876 169.854 669.298 169.854C656.644 169.854 646.779 166.851 639.702 160.847C632.625 154.842 629.086 146.585 629.086 136.076C629.086 134.088 629.218 132.184 629.482 130.364C629.092 130.429 628.702 130.498 628.312 130.571C624.165 131.308 620.081 132.45 616.043 133.579C607.533 135.958 599.227 138.28 590.961 136.631ZM9.7553 113.005C5.70641 121.393 3.68196 130.692 3.68196 140.902C3.68196 157.63 8.61459 171.141 18.4798 181.435C28.5596 191.515 43.7864 198.699 64.1603 202.988L99.5465 210.387C112.843 213.175 122.172 216.714 127.534 221.003C133.11 225.292 135.898 231.19 135.898 238.696C135.898 247.704 132.038 255.103 124.317 260.893C116.596 266.469 104.265 269.257 87.3222 269.257C75.7412 269.257 64.6964 267.97 54.1878 265.397C43.6791 262.823 33.7067 258.748 24.2703 253.172C20.1955 250.599 16.4425 249.634 13.0111 250.277C9.57967 250.921 6.68443 252.636 4.32535 255.424C2.18073 257.998 0.786727 261.108 0.143341 264.753C-0.285583 268.185 0.250572 271.723 1.75181 275.369C3.25304 279.015 5.93382 282.125 9.79414 284.698C16.4425 288.988 23.9486 292.633 32.3127 295.636C40.6767 298.424 49.5768 300.461 59.0132 301.748C68.4495 303.249 77.8858 304 87.3222 304C101.048 304 113.379 302.391 124.317 299.175C135.254 295.958 144.584 291.347 152.304 285.342C160.239 279.337 166.244 272.152 170.319 263.788C174.608 255.424 176.753 246.095 176.753 235.801C176.753 219.716 171.499 206.849 160.99 197.198C150.696 187.547 134.933 180.47 113.701 175.966L78.6365 168.567C66.1977 165.994 57.4047 162.455 52.2576 157.951C47.1105 153.233 44.537 147.014 44.537 139.293C44.537 132.43 46.3599 126.533 50.0058 121.6C53.8661 116.453 59.3349 112.485 66.4121 109.697C67.7113 109.185 69.0575 108.721 70.4506 108.303C67.1225 107.205 63.805 106.478 60.4875 106.478C53.9124 106.478 47.4966 109.025 41.1011 111.563C32.8335 114.844 24.5999 118.112 16.1 115.848C13.986 115.252 11.872 114.272 9.7553 113.005ZM123.507 109.852C125.559 108.465 127.618 107.001 129.688 105.53C135.555 101.361 141.503 97.1329 147.587 94.4317C152.056 92.331 156.608 91.1535 161.19 90.6093C163.971 92.8017 165.835 95.4113 166.78 98.4381C168.067 101.869 168.389 105.301 167.745 108.732C167.102 111.949 165.601 114.737 163.242 117.096C160.883 119.455 157.88 120.849 154.234 121.278C150.803 121.707 146.835 120.635 142.332 118.061C136.122 114.537 129.847 111.801 123.507 109.852ZM229.465 297.566C238.473 301.855 248.66 304 260.026 304C268.605 304 276.218 302.499 282.866 299.496C289.515 296.494 294.983 292.312 299.273 286.95C301.946 283.64 304.091 279.989 305.707 275.999V282.768C305.707 289.417 307.315 294.564 310.532 298.209C313.963 301.641 318.682 303.357 324.686 303.357C330.691 303.357 335.302 301.641 338.519 298.209C341.736 294.564 343.345 289.417 343.345 282.768V205.562C343.345 190.55 340.878 178.325 335.946 168.889C331.013 159.238 323.507 152.054 313.427 147.335C303.562 142.617 290.909 140.258 275.467 140.258C267.961 140.258 259.597 141.116 250.375 142.832C241.368 144.547 231.932 147.443 222.066 151.517C217.992 153.019 215.096 155.378 213.381 158.595C211.665 161.597 210.807 164.707 210.807 167.924C210.807 171.141 211.665 174.143 213.381 176.931C215.096 179.505 217.455 181.22 220.458 182.078C223.675 182.936 227.321 182.4 231.395 180.47C239.331 176.824 246.837 174.25 253.914 172.749C261.206 171.248 267.961 170.497 274.181 170.497C285.333 170.497 293.268 172.856 297.986 177.575C302.704 182.293 305.063 190.013 305.063 200.736V207.492H293.804C271.071 207.492 252.949 208.993 239.438 211.996C225.927 214.998 216.169 219.931 210.164 226.794C204.159 233.442 201.156 242.557 201.156 254.138C201.156 263.574 203.623 272.045 208.555 279.551C213.702 287.057 220.672 293.062 229.465 297.566ZM305.063 230.654V237.731C305.063 245.237 303.455 251.886 300.238 257.676C297.021 263.467 292.624 268.078 287.048 271.509C281.687 274.726 275.467 276.334 268.39 276.334C259.597 276.334 252.734 274.082 247.802 269.579C242.869 265.075 240.403 259.285 240.403 252.207C240.403 246.631 242.011 242.342 245.228 239.34C248.66 236.123 254.343 233.871 262.278 232.584C270.213 231.297 280.829 230.654 294.126 230.654H305.063ZM669.298 271.831C684.524 271.831 695.998 268.935 703.719 263.145C711.439 257.14 715.3 248.347 715.3 236.766C715.3 225.185 711.439 216.499 703.719 210.709C695.998 204.918 684.524 202.023 669.298 202.023C654.285 202.023 642.812 204.918 634.876 210.709C627.156 216.499 623.295 225.185 623.295 236.766C623.295 248.347 627.156 257.14 634.876 263.145C642.812 268.935 654.285 271.831 669.298 271.831ZM791.737 298.209C795.168 301.641 800.101 303.357 806.535 303.357C820.046 303.357 826.802 296.494 826.802 282.768V212.317C826.802 200.093 830.233 190.335 837.096 183.043C844.173 175.537 853.609 171.784 865.405 171.784C875.056 171.784 882.133 174.572 886.636 180.148C891.355 185.724 893.714 194.624 893.714 206.849V282.768C893.714 289.417 895.429 294.564 898.861 298.209C902.507 301.641 907.547 303.357 913.98 303.357C920.414 303.357 925.347 301.641 928.778 298.209C932.21 294.564 933.925 289.417 933.925 282.768V204.918C933.925 190.335 931.888 178.325 927.813 168.889C923.738 159.238 917.626 152.054 909.477 147.335C901.327 142.617 890.926 140.258 878.272 140.258C865.619 140.258 854.253 143.261 844.173 149.266C836.507 153.765 830.395 159.949 825.837 167.816V161.168C825.837 154.52 824.121 149.48 820.689 146.049C817.258 142.617 812.433 140.902 806.213 140.902C799.994 140.902 795.168 142.617 791.737 146.049C788.306 149.48 786.59 154.52 786.59 161.168V282.768C786.59 289.417 788.306 294.564 791.737 298.209Z" fill="#504D49"/>
</svg>
